<?xml version="1.0" encoding="utf-8"?>
<svg xmlns="http://www.w3.org/2000/svg" width="19" height="19" viewBox="0 0 26 27" fill="none">
<path d="M21.5937 7.10567H17.6115C17.6115 5.83828 17.108 4.6228 16.2119 3.72662C15.3157 2.83045 14.1002 2.32698 12.8328 2.32698C11.5654 2.32698 10.35 2.83045 9.45378 3.72662C8.5576 4.6228 8.05414 5.83828 8.05414 7.10567H4.0719C3.64944 7.10567 3.24428 7.27349 2.94555 7.57221C2.64683 7.87094 2.479 8.2761 2.479 8.69856V20.6453C2.479 21.0677 2.64683 21.4729 2.94555 21.7716C3.24428 22.0703 3.64944 22.2382 4.0719 22.2382H21.5937C22.0162 22.2382 22.4214 22.0703 22.7201 21.7716C23.0188 21.4729 23.1866 21.0677 23.1866 20.6453V8.69856C23.1866 8.2761 23.0188 7.87094 22.7201 7.57221C22.4214 7.27349 22.0162 7.10567 21.5937 7.10567ZM12.8328 3.91988C13.6777 3.91988 14.4881 4.25552 15.0855 4.85297C15.683 5.45042 16.0186 6.26074 16.0186 7.10567H9.64703C9.64703 6.26074 9.98268 5.45042 10.5801 4.85297C11.1776 4.25552 11.9879 3.91988 12.8328 3.91988ZM21.5937 20.6453H4.0719V8.69856H8.05414V10.2915C8.05414 10.5027 8.13805 10.7053 8.28741 10.8546C8.43677 11.004 8.63935 11.0879 8.85058 11.0879C9.06182 11.0879 9.2644 11.004 9.41376 10.8546C9.56312 10.7053 9.64703 10.5027 9.64703 10.2915V8.69856H16.0186V10.2915C16.0186 10.5027 16.1025 10.7053 16.2519 10.8546C16.4012 11.004 16.6038 11.0879 16.8151 11.0879C17.0263 11.0879 17.2289 11.004 17.3782 10.8546C17.5276 10.7053 17.6115 10.5027 17.6115 10.2915V8.69856H21.5937V20.6453Z" fill="white"></path>
</svg>