<svg xmlns="http://www.w3.org/2000/svg" width="50" height="60" viewBox="0 0 60 60" fill="none"><path d="M0 0V59.5804H59.5804V50.1399H51.6923L48.2937 46.4476L44.8951 50.1399H21.6923V31.2587H14.0559L23.6643 9.44056H32.7692L35.4126 15.2308V9.44056H46.4475L48.8811 15.6084L51.3567 9.44056H59.5804V0H0Z" fill="#C4C4C4"></path><path fill-rule="evenodd" clip-rule="evenodd" d="M25.7622 12.4615L18.7133 28.4056H23.3287L24.5874 25.3007H32.3077L33.5664 28.4056H38.2238H42.2517V18.8392L42.2098 16.4895L43.1748 18.8392L47.0769 28.4056H50.6853L54.6294 18.8392L55.5525 16.4895L55.5105 18.8392V28.4056H59.5385V12.4615H53.1608L50.2657 19.3427L48.8811 22.7413L47.4965 19.3427L44.6014 12.4615H38.2238V28.4056L31.2168 12.4615H25.7622ZM25.972 21.9441L27.4825 18.2098L28.4475 15.7762L29.4126 18.2098L30.9231 21.9441H25.972Z" fill="#C4C4C4"></path><path d="M48.3776 36.4615L53.2867 31.2588H58.4895L50.9371 39.1469L58.4895 47.1609H53.2028L48.2937 41.9161L43.3846 47.1609H38.2238L45.7762 39.2308L38.2238 31.2588H43.5105L48.3776 36.4615Z" fill="#C4C4C4"></path><path d="M24.8811 31.2588H38.2238V34.6574H28.9091V37.5105H38.014V40.9091H28.9091V43.7623H38.2238V47.1609H24.8811V31.2588Z" fill="#C4C4C4"></path><path d="M59.5804 43.7622L55.0909 39.1049L59.5804 34.6154V43.7622Z" fill="#C4C4C4"></path></svg>