<?xml version="1.0" encoding="utf-8"?>
<svg xmlns="http://www.w3.org/2000/svg" fill="none" height="35" viewBox="0 0 36 35" width="36">
<path d="M29.8703 20.1422C29.5356 19.8739 29.146 19.6896 28.7318 19.6037C28.3176 19.5178 27.89 19.5325 27.4822 19.6467L22.7779 20.7736C22.8873 20.2919 22.8907 19.7907 22.7878 19.3074C22.6848 18.8242 22.4782 18.3715 22.1835 17.9832C21.8887 17.595 21.5135 17.2813 21.0858 17.0657C20.6581 16.85 20.1891 16.7381 19.714 16.7381H14.0855C13.6129 16.7369 13.1446 16.8332 12.7079 17.0216C12.2712 17.21 11.8746 17.4867 11.5411 17.8357L8.99786 20.4866H5.7721C5.29499 20.4866 4.83742 20.6841 4.50005 21.0356C4.16268 21.3871 3.97314 21.8638 3.97314 22.3609L3.97314 27.0465C3.97314 27.5436 4.16268 28.0203 4.50005 28.3718C4.83742 28.7233 5.29499 28.9208 5.7721 28.9208H17.4653C17.5389 28.9208 17.6121 28.9114 17.6835 28.8927L24.8793 27.0184C24.9252 27.007 24.9699 26.9914 25.0131 26.9716L29.3834 25.034L29.4329 25.0106C29.8529 24.7919 30.2126 24.4655 30.4781 24.062C30.7435 23.6584 30.906 23.1912 30.9502 22.7041C30.9944 22.2171 30.9189 21.7264 30.7307 21.2782C30.5426 20.83 30.248 20.439 29.8748 20.1422H29.8703ZM5.7721 22.3609H8.47054V27.0465H5.7721V22.3609ZM28.6447 23.3226L24.3722 25.218L17.3529 27.0465H10.2695V21.8115L12.8139 19.1618C12.9803 18.987 13.1785 18.8484 13.3968 18.7541C13.6151 18.6597 13.8492 18.6116 14.0855 18.6124H19.714C20.0719 18.6124 20.415 18.7605 20.6681 19.0241C20.9211 19.2877 21.0632 19.6452 21.0632 20.0181C21.0632 20.3909 20.9211 20.7484 20.6681 21.012C20.415 21.2757 20.0719 21.4238 19.714 21.4238H16.5659C16.3273 21.4238 16.0985 21.5225 15.9298 21.6982C15.7611 21.874 15.6664 22.1123 15.6664 22.3609C15.6664 22.6094 15.7611 22.8478 15.9298 23.0235C16.0985 23.1993 16.3273 23.298 16.5659 23.298H20.1638C20.2315 23.2978 20.299 23.29 20.365 23.2746L27.8982 21.4694L27.933 21.4601C28.163 21.3936 28.4084 21.418 28.6221 21.5287C28.8358 21.6394 29.0027 21.8285 29.0906 22.0597C29.1785 22.2908 29.1813 22.5477 29.0983 22.7809C29.0154 23.014 28.8526 23.207 28.6414 23.3226H28.6447ZM22.4125 14.8639C22.6347 14.8641 22.8566 14.8453 23.0758 14.8076C23.3225 15.5708 23.7737 16.2445 24.3762 16.7491C24.9787 17.2536 25.7072 17.5678 26.4757 17.6546C27.2441 17.7414 28.0204 17.5971 28.7126 17.2389C29.4049 16.8806 29.9842 16.3233 30.3821 15.6329C30.78 14.9425 30.9798 14.1478 30.958 13.3428C30.9361 12.5378 30.6934 11.7561 30.2587 11.0903C29.824 10.4244 29.2153 9.90213 28.5047 9.58523C27.7941 9.26833 27.0113 9.17004 26.2487 9.30199C26.0113 8.56663 25.5837 7.91378 25.013 7.41529C24.4424 6.91679 23.7508 6.59198 23.0144 6.47659C22.278 6.3612 21.5253 6.45971 20.8391 6.76127C20.153 7.06284 19.56 7.55577 19.1254 8.18583C18.6909 8.81588 18.4315 9.55863 18.376 10.3323C18.3205 11.106 18.4709 11.8807 18.8107 12.5711C19.1505 13.2615 19.6666 13.8408 20.302 14.2453C20.9375 14.6498 21.6678 14.8639 22.4125 14.8639ZM29.1586 13.4582C29.1586 13.9215 29.0267 14.3745 28.7796 14.7598C28.5325 15.145 28.1813 15.4453 27.7704 15.6226C27.3595 15.8 26.9074 15.8464 26.4712 15.756C26.035 15.6656 25.6343 15.4424 25.3198 15.1148C25.0053 14.7871 24.7911 14.3697 24.7044 13.9152C24.6176 13.4608 24.6621 12.9897 24.8323 12.5616C25.0025 12.1335 25.2908 11.7676 25.6606 11.5102C26.0303 11.2527 26.4651 11.1153 26.9099 11.1153C27.5063 11.1153 28.0782 11.3622 28.4999 11.8015C28.9216 12.2409 29.1586 12.8368 29.1586 13.4582ZM22.4125 8.30395C22.903 8.3042 23.3801 8.47158 23.7708 8.78057C24.1616 9.08956 24.4446 9.5232 24.5768 10.0154C24.1162 10.3531 23.7282 10.7873 23.4378 11.2901C23.1474 11.793 22.9609 12.3535 22.8903 12.9357C22.7333 12.971 22.5731 12.9891 22.4125 12.9896C21.8161 12.9896 21.2441 12.7428 20.8224 12.3034C20.4007 11.864 20.1638 11.2681 20.1638 10.6468C20.1638 10.0254 20.4007 9.42951 20.8224 8.99014C21.2441 8.55078 21.8161 8.30395 22.4125 8.30395Z" fill="#631F99"/>
</svg>