<svg xmlns="http://www.w3.org/2000/svg" width="50" height="62" viewBox="0 0 80 62" fill="none"><path d="M14.3729 61.2881V57.2203C14.3729 55.6836 13.3785 54.6441 11.8418 54.6441C11.0282 54.6441 10.1695 54.8701 9.58192 55.8192C9.12994 55.0961 8.40678 54.6441 7.45762 54.6441C6.77966 54.6441 6.10169 54.8701 5.55932 55.5932V54.7797H4.15819V61.2881H5.60452V57.6723C5.60452 56.5424 6.23728 55.9548 7.18644 55.9548C8.13559 55.9548 8.58757 56.5876 8.58757 57.6723V61.2881H9.9435V57.6723C9.9435 56.5424 10.5763 55.9548 11.5254 55.9548C12.4746 55.9548 12.9717 56.5876 12.9717 57.6723V61.2881H14.3729ZM35.4802 54.7797H33.1751V52.791H31.7288V54.7797H30.4181V56.0904H31.7288V59.0735C31.7288 60.565 32.3164 61.4689 33.9887 61.4689C34.6215 61.4689 35.2994 61.2881 35.7514 60.9718L35.3446 59.7514C34.9379 59.9774 34.4407 60.113 34.0791 60.113C33.3559 60.113 33.1299 59.661 33.1299 59.0283V56.0904H35.435V54.7797H35.4802ZM47.548 54.6441C46.7345 54.6441 46.1921 55.0057 45.8305 55.5932V54.8249H44.4294V61.3333H45.8305V57.6723C45.8305 56.5876 46.2825 56 47.2316 56C47.5028 56 47.8192 56.0452 48.1356 56.1808L48.5876 54.8249C48.226 54.6893 47.8192 54.6441 47.548 54.6441ZM29.3333 55.322C28.6554 54.8701 27.7062 54.6441 26.6667 54.6441C25.0395 54.6441 23.9548 55.4124 23.9548 56.7232C23.9548 57.7627 24.7232 58.4407 26.2147 58.6215L26.8927 58.7119C27.661 58.8023 28.0226 59.0283 28.0226 59.3898C28.0226 59.887 27.5254 60.1582 26.5311 60.1582C25.5367 60.1582 24.8588 59.8418 24.3616 59.4802L23.6836 60.565C24.452 61.1525 25.4463 61.4237 26.4859 61.4237C28.339 61.4237 29.4237 60.5198 29.4237 59.2994C29.4237 58.1695 28.565 57.5367 27.1638 57.3559L26.4859 57.2655C25.8531 57.1751 25.4011 57.0396 25.4011 56.6328C25.4011 56.1356 25.8531 55.8644 26.6215 55.8644C27.435 55.8644 28.2486 56.1808 28.6554 56.4068L29.3333 55.322ZM67.1638 54.6441C66.3503 54.6441 65.8079 55.0057 65.4463 55.5932V54.8249H64.0452V61.3333H65.4463V57.6723C65.4463 56.5876 65.8983 56 66.8475 56C67.1186 56 67.435 56.0452 67.7514 56.1808L68.2034 54.8249C67.8418 54.6893 67.435 54.6441 67.1638 54.6441ZM48.9492 58.0339C48.9492 60.0226 50.3051 61.4689 52.4294 61.4689C53.4237 61.4689 54.0565 61.2429 54.7797 60.7006L54.1017 59.5706C53.5593 59.9322 53.0169 60.1582 52.3842 60.1582C51.2542 60.1582 50.4407 59.3446 50.4407 58.0791C50.4407 56.8136 51.2542 56 52.3842 56C53.0169 56 53.5593 56.226 54.1017 56.5876L54.7797 55.4576C54.0565 54.9153 53.4237 54.6893 52.4294 54.6893C50.3503 54.6441 48.9492 56.0904 48.9492 58.0339ZM62.1921 58.0339V54.7797H60.791V55.548C60.339 54.9605 59.661 54.5989 58.7571 54.5989C56.9492 54.5989 55.5028 56.0452 55.5028 58.0339C55.5028 60.0226 56.9492 61.4689 58.7571 61.4689C59.661 61.4689 60.339 61.1074 60.791 60.5198V61.2881H62.1921V58.0339ZM56.9492 58.0339C56.9492 56.904 57.7175 55.9548 58.9379 55.9548C60.113 55.9548 60.8814 56.8588 60.8814 58.0339C60.8814 59.2091 60.113 60.113 58.9379 60.113C57.6723 60.113 56.9492 59.2091 56.9492 58.0339ZM39.8644 54.6441C37.9661 54.6441 36.6554 56.0452 36.6554 58.0791C36.6554 60.1582 38.0565 61.5141 40 61.5141C40.9944 61.5141 41.8531 61.2881 42.6667 60.6102L41.9887 59.5706C41.4463 60.0226 40.7684 60.2486 40.0904 60.2486C39.1864 60.2486 38.3729 59.8418 38.1469 58.6667H42.9379C42.9379 58.4859 42.9831 58.3051 42.9831 58.1243C42.9379 56 41.7175 54.6441 39.8644 54.6441ZM39.8644 55.9096C40.7684 55.9096 41.3559 56.4972 41.4915 57.4915H38.1017C38.2825 56.5424 38.8701 55.9096 39.8644 55.9096ZM75.2994 58.0339V52.1582H73.8983V55.548C73.4463 54.9605 72.7684 54.5989 71.8644 54.5989C70.0565 54.5989 68.6102 56.0452 68.6102 58.0339C68.6102 60.0226 70.0565 61.4689 71.8644 61.4689C72.7684 61.4689 73.4463 61.1074 73.8983 60.5198V61.2881H75.2994V58.0339ZM70.0113 58.0339C70.0113 56.904 70.7797 55.9548 72 55.9548C73.1751 55.9548 73.9435 56.8588 73.9435 58.0339C73.9435 59.2091 73.1751 60.113 72 60.113C70.7797 60.113 70.0113 59.2091 70.0113 58.0339ZM22.3277 58.0339V54.7797H20.9265V55.548C20.4746 54.9605 19.7966 54.5989 18.8927 54.5989C17.0847 54.5989 15.6384 56.0452 15.6384 58.0339C15.6384 60.0226 17.0847 61.4689 18.8927 61.4689C19.7966 61.4689 20.4746 61.1074 20.9265 60.5198V61.2881H22.3277V58.0339ZM17.0847 58.0339C17.0847 56.904 17.8531 55.9548 19.0734 55.9548C20.2486 55.9548 21.0169 56.8588 21.0169 58.0339C21.0169 59.2091 20.2486 60.113 19.0734 60.113C17.8531 60.113 17.0847 59.2091 17.0847 58.0339Z" fill="#999999"></path><path d="M50.2147 5.24292H28.8362V43.7514H50.2147V5.24292Z" fill="#999999"></path><path d="M30.1921 24.4972C30.1921 16.678 33.8531 9.71751 39.548 5.24294C35.3898 1.9435 30.1469 0 24.452 0C10.9379 0 0 10.983 0 24.4972C0 38.0113 10.9379 48.9944 24.452 48.9944C30.1469 48.9944 35.3898 47.0508 39.548 43.7514C33.8531 39.2768 30.1921 32.3164 30.1921 24.4972Z" fill="#C7C7C7"></path><path d="M79.096 24.4972C79.096 38.0113 68.1582 48.9944 54.6441 48.9944C48.9492 48.9944 43.7062 47.0508 39.548 43.7514C45.2429 39.2768 48.904 32.3164 48.904 24.4972C48.904 16.678 45.2429 9.71751 39.548 5.24294C43.7062 1.9435 48.9492 0 54.6441 0C68.1582 0 79.096 10.983 79.096 24.4972Z" fill="#E7E7E7"></path></svg>