<?xml version="1.0" encoding="utf-8"?>
<svg xmlns="http://www.w3.org/2000/svg" fill="none" height="35" viewBox="0 0 33 35" width="33">
<path d="M23.1181 16.4576C23.1181 16.6985 23.0415 16.9341 22.898 17.1344C22.7545 17.3347 22.5505 17.4909 22.3119 17.5831C22.0733 17.6753 21.8107 17.6994 21.5574 17.6524C21.3041 17.6054 21.0714 17.4894 20.8887 17.319C20.7061 17.1486 20.5817 16.9316 20.5313 16.6952C20.4809 16.4589 20.5068 16.214 20.6056 15.9914C20.7045 15.7687 20.8719 15.5785 21.0866 15.4446C21.3014 15.3107 21.5539 15.2393 21.8122 15.2393C22.1585 15.2393 22.4907 15.3676 22.7356 15.5961C22.9805 15.8246 23.1181 16.1345 23.1181 16.4576ZM18.765 11.1784H14.4119C14.181 11.1784 13.9595 11.264 13.7962 11.4163C13.633 11.5686 13.5412 11.7752 13.5412 11.9906C13.5412 12.206 13.633 12.4126 13.7962 12.5649C13.9595 12.7172 14.181 12.8028 14.4119 12.8028H18.765C18.9959 12.8028 19.2173 12.7172 19.3806 12.5649C19.5439 12.4126 19.6356 12.206 19.6356 11.9906C19.6356 11.7752 19.5439 11.5686 19.3806 11.4163C19.2173 11.264 18.9959 11.1784 18.765 11.1784ZM29.2124 16.0515V19.3002C29.2124 19.9464 28.9373 20.5661 28.4475 21.0231C27.9576 21.48 27.2933 21.7367 26.6006 21.7367H26.3437L24.5796 26.3438C24.4589 26.6594 24.2364 26.9324 23.9428 27.1254C23.6492 27.3184 23.2988 27.422 22.9396 27.422H21.5553C21.1961 27.422 20.8457 27.3184 20.5521 27.1254C20.2585 26.9324 20.0361 26.6594 19.9153 26.3438L19.7063 25.7976H13.4705L13.2616 26.3438C13.1408 26.6594 12.9183 26.9324 12.6247 27.1254C12.3311 27.3184 11.9807 27.422 11.6215 27.422H10.2372C9.87804 27.422 9.52762 27.3184 9.23401 27.1254C8.94041 26.9324 8.71797 26.6594 8.59719 26.3438L7.22923 22.7743C5.92784 21.4003 5.11297 19.6849 4.89596 17.8626C4.61499 18.0003 4.3797 18.207 4.21551 18.4604C4.05132 18.7137 3.96449 19.0041 3.96439 19.3002C3.96439 19.5156 3.87266 19.7222 3.70939 19.8745C3.54612 20.0268 3.32467 20.1124 3.09377 20.1124C2.86286 20.1124 2.64142 20.0268 2.47814 19.8745C2.31487 19.7222 2.22314 19.5156 2.22314 19.3002C2.22447 18.5759 2.48523 17.8728 2.96397 17.3026C3.44272 16.7323 4.112 16.3277 4.86548 16.153C5.05998 13.9148 6.14968 11.8266 7.91819 10.3032C9.68671 8.77979 12.0047 7.93254 14.4119 7.92969H25.73C25.9609 7.92969 26.1823 8.01526 26.3456 8.16757C26.5089 8.31988 26.6006 8.52646 26.6006 8.74187C26.6006 8.95727 26.5089 9.16385 26.3456 9.31616C26.1823 9.46848 25.9609 9.55404 25.73 9.55404H23.4021C24.847 10.4997 25.9833 11.7998 26.6855 13.3104C26.7323 13.4119 26.778 13.5134 26.8215 13.6149C27.4752 13.6667 28.0841 13.9461 28.5271 14.3975C28.9701 14.849 29.2148 15.4394 29.2124 16.0515ZM27.4712 16.0515C27.4712 15.8361 27.3795 15.6295 27.2162 15.4772C27.0529 15.3249 26.8315 15.2393 26.6006 15.2393H26.2023C26.0168 15.2395 25.8362 15.1844 25.6867 15.0822C25.5371 14.9799 25.4265 14.8358 25.3708 14.6708C24.872 13.1858 23.8776 11.8885 22.5326 10.968C21.1876 10.0475 19.5625 9.5521 17.8944 9.55404H14.4119C12.8912 9.55397 11.4034 9.96666 10.1299 10.7418C8.85634 11.5169 7.85209 12.621 7.23959 13.9194C6.62709 15.2178 6.43281 16.6544 6.68045 18.054C6.92808 19.4536 7.60692 20.7558 8.63419 21.8017C8.71275 21.8814 8.77343 21.9749 8.81267 22.0768L10.2372 25.7976H11.6215L12.0372 24.7123C12.0976 24.5546 12.2087 24.4182 12.3554 24.3217C12.5021 24.2252 12.6772 24.1733 12.8567 24.1733H20.3201C20.4996 24.1733 20.6747 24.2252 20.8214 24.3217C20.9681 24.4182 21.0792 24.5546 21.1396 24.7123L21.5553 25.7976H22.9396L24.9105 20.6514C24.9708 20.4937 25.082 20.3573 25.2287 20.2608C25.3754 20.1643 25.5505 20.1125 25.73 20.1124H26.6006C26.8315 20.1124 27.0529 20.0268 27.2162 19.8745C27.3795 19.7222 27.4712 19.5156 27.4712 19.3002V16.0515Z" fill="#631F99"/>
</svg>