<?xml version="1.0" encoding="utf-8"?>
<svg xmlns="http://www.w3.org/2000/svg" fill="none" height="35" viewBox="0 0 35 35" width="35">
<path d="M30.4573 14.5285C30.4573 14.7671 30.3601 14.996 30.187 15.1648C30.0139 15.3335 29.7791 15.4284 29.5343 15.4284H27.6883V17.2281C27.6883 17.4667 27.591 17.6956 27.4179 17.8644C27.2448 18.0331 27.01 18.128 26.7652 18.128C26.5204 18.128 26.2857 18.0331 26.1126 17.8644C25.9395 17.6956 25.8422 17.4667 25.8422 17.2281V15.4284H23.9962C23.7514 15.4284 23.5166 15.3335 23.3435 15.1648C23.1704 14.996 23.0732 14.7671 23.0732 14.5285C23.0732 14.2898 23.1704 14.0609 23.3435 13.8922C23.5166 13.7234 23.7514 13.6286 23.9962 13.6286H25.8422V11.8289C25.8422 11.5902 25.9395 11.3613 26.1126 11.1926C26.2857 11.0238 26.5204 10.929 26.7652 10.929C27.01 10.929 27.2448 11.0238 27.4179 11.1926C27.591 11.3613 27.6883 11.5902 27.6883 11.8289V13.6286H29.5343C29.7791 13.6286 30.0139 13.7234 30.187 13.8922C30.3601 14.0609 30.4573 14.2898 30.4573 14.5285ZM19.3811 10.0292H20.3041V10.929C20.3041 11.1677 20.4014 11.3966 20.5745 11.5653C20.7476 11.7341 20.9824 11.8289 21.2272 11.8289C21.472 11.8289 21.7067 11.7341 21.8798 11.5653C22.0529 11.3966 22.1502 11.1677 22.1502 10.929V10.0292H23.0732C23.318 10.0292 23.5528 9.93435 23.7259 9.76559C23.899 9.59683 23.9962 9.36795 23.9962 9.12929C23.9962 8.89063 23.899 8.66174 23.7259 8.49299C23.5528 8.32423 23.318 8.22942 23.0732 8.22942H22.1502V7.32955C22.1502 7.09089 22.0529 6.86201 21.8798 6.69325C21.7067 6.52449 21.472 6.42969 21.2272 6.42969C20.9824 6.42969 20.7476 6.52449 20.5745 6.69325C20.4014 6.86201 20.3041 7.09089 20.3041 7.32955V8.22942H19.3811C19.1363 8.22942 18.9016 8.32423 18.7285 8.49299C18.5554 8.66174 18.4581 8.89063 18.4581 9.12929C18.4581 9.36795 18.5554 9.59683 18.7285 9.76559C18.9016 9.93435 19.1363 10.0292 19.3811 10.0292ZM27.7771 20.94C27.8845 21.062 27.9565 21.2098 27.9855 21.368C28.0145 21.5263 27.9995 21.6892 27.9421 21.8399C27.3016 23.5428 26.2315 25.061 24.8305 26.2543C23.4295 27.4477 21.7427 28.2777 19.9258 28.6679C18.109 29.0581 16.2206 28.9959 14.4349 28.4869C12.6493 27.978 11.0238 27.0387 9.70871 25.7558C8.39357 24.473 7.43107 22.8878 6.91004 21.1466C6.38901 19.4054 6.32624 17.5644 6.72751 15.7933C7.12878 14.0222 7.98117 12.3782 9.20601 11.013C10.4309 9.64783 11.9887 8.6054 13.7357 7.98196C13.8895 7.92705 14.0555 7.91302 14.2167 7.9413C14.3778 7.96958 14.5284 8.03916 14.6529 8.14289C14.7774 8.24662 14.8713 8.38077 14.925 8.53158C14.9788 8.68239 14.9904 8.84442 14.9587 9.00106C14.6353 10.5972 14.72 12.2464 15.2055 13.803C15.6909 15.3596 16.5622 16.7756 17.7422 17.9261C18.9222 19.0765 20.3747 19.9259 21.9714 20.3991C23.568 20.8724 25.2596 20.9551 26.8968 20.6397C27.0576 20.6091 27.224 20.6207 27.3787 20.6735C27.5334 20.7263 27.6709 20.8183 27.7771 20.94ZM25.5399 22.6138C25.3334 22.6239 25.1257 22.6295 24.9192 22.6295C21.7375 22.6263 18.687 21.3924 16.4374 19.1988C14.1878 17.0052 12.9228 14.031 12.92 10.929C12.92 10.7277 12.92 10.5252 12.9362 10.3239C11.7081 11.0128 10.6592 11.9682 9.87073 13.1159C9.08227 14.2637 8.57543 15.573 8.38949 16.9424C8.20354 18.3118 8.34347 19.7046 8.79844 21.0128C9.25341 22.3211 10.0112 23.5096 11.0131 24.4864C12.015 25.4632 13.2341 26.202 14.576 26.6455C15.9179 27.0891 17.3465 27.2255 18.7511 27.0442C20.1558 26.8629 21.4988 26.3688 22.676 25.6001C23.8533 24.8314 24.8332 23.8088 25.5399 22.6115V22.6138Z" fill="#631F99"/>
</svg>