<svg xmlns="http://www.w3.org/2000/svg" width="90" height="39" viewBox="0 0 160 39" fill="none"><path d="M141.262 0.385136L150.068 14.0702C150.222 14.3087 150.304 14.5866 150.304 14.8706C150.304 15.1546 150.222 15.4326 150.068 15.671L141.265 29.302C141.186 29.423 141.079 29.5225 140.952 29.5915C140.826 29.6604 140.684 29.6965 140.539 29.6966H134.671C134.618 29.6964 134.566 29.682 134.52 29.6548C134.475 29.6277 134.438 29.5889 134.412 29.5424C134.387 29.4959 134.374 29.4435 134.376 29.3906C134.378 29.3377 134.394 29.2862 134.422 29.2415L143.601 15.025C143.631 14.9774 143.647 14.9222 143.647 14.8659C143.647 14.8095 143.631 14.7543 143.601 14.7067L134.422 0.45197C134.395 0.40761 134.38 0.356763 134.378 0.304585C134.377 0.252406 134.389 0.200753 134.414 0.154865C134.439 0.108977 134.475 0.0704858 134.52 0.0432958C134.564 0.0161058 134.615 0.00118412 134.667 4.43852e-05H140.533C140.677 -0.00141291 140.819 0.0330364 140.946 0.100275C141.073 0.167514 141.182 0.265421 141.262 0.385136Z" fill="#C7C7C7"></path><path d="M151.769 16.7578C151.812 16.7809 151.849 16.8143 151.876 16.855L159.963 29.3625C159.984 29.3956 159.995 29.4338 159.997 29.4731C159.998 29.5123 159.989 29.5512 159.97 29.5856C159.951 29.6201 159.923 29.6489 159.89 29.6689C159.856 29.689 159.817 29.6997 159.778 29.6998H153.699C153.576 29.6997 153.455 29.6687 153.348 29.6098C153.24 29.5509 153.148 29.4658 153.082 29.3625L148.964 22.9973C148.732 22.6399 148.609 22.2232 148.609 21.7975C148.609 21.3718 148.732 20.9551 148.964 20.5977L151.382 16.855C151.409 16.8143 151.446 16.7809 151.489 16.7578C151.532 16.7347 151.58 16.7226 151.629 16.7226C151.678 16.7226 151.726 16.7347 151.769 16.7578Z" fill="#C7C7C7"></path><path d="M151.382 12.8386C151.409 12.8793 151.446 12.9126 151.489 12.9357C151.532 12.9588 151.58 12.9709 151.629 12.9709C151.678 12.9709 151.726 12.9588 151.769 12.9357C151.812 12.9126 151.849 12.8793 151.876 12.8386L159.966 0.3374C159.987 0.304252 159.999 0.266064 160 0.226813C160.001 0.187562 159.992 0.148686 159.973 0.114234C159.954 0.0797829 159.926 0.0510169 159.893 0.0309335C159.859 0.0108502 159.82 0.00018442 159.781 4.74739e-05H153.702C153.58 0.000184566 153.459 0.0311355 153.351 0.0900695C153.243 0.149003 153.152 0.23404 153.085 0.3374L148.967 6.70255C148.736 7.05999 148.613 7.47665 148.613 7.90238C148.613 8.32811 148.736 8.74477 148.967 9.10221L151.382 12.8386Z" fill="#C7C7C7"></path><path d="M0 3.15079V29.6075L4.69748 29.6107V11.2154L18.4717 29.6075H22.5199V3.15079H17.8415V21.5461L4.06097 3.15079H0Z" fill="#C7C7C7"></path><path fill-rule="evenodd" clip-rule="evenodd" d="M39.483 29.6075H43.9991V12.0079H39.483V13.1345C38.1433 12.0503 36.4771 11.4493 34.7537 11.4287C33.5305 11.4315 32.3199 11.6766 31.1918 12.1496C30.0637 12.6226 29.0404 13.3143 28.1809 14.1847C27.3215 15.0551 26.6428 16.0871 26.1841 17.2211C25.7254 18.355 25.4957 19.5686 25.5083 20.7918C25.4665 23.1248 26.3195 25.3854 27.8921 27.1092C28.739 28.0956 29.7929 28.8831 30.979 29.4156C32.165 29.9481 33.4538 30.2125 34.7537 30.1899C36.477 30.1688 38.143 29.5679 39.483 28.4841V29.6075ZM30.0817 20.7886C30.0817 19.3756 30.4318 18.2107 31.1288 17.3196C31.5477 16.7561 32.0953 16.3009 32.7258 15.992C33.3564 15.6831 34.0517 15.5294 34.7537 15.5437C35.3829 15.5171 36.0106 15.6242 36.5954 15.8579C37.1802 16.0916 37.7088 16.4466 38.1463 16.8995C39.0757 17.867 39.5403 19.1655 39.5403 20.7759C39.59 22.0239 39.2289 23.2537 38.5123 24.2767C38.0923 24.8548 37.5371 25.3212 36.8952 25.6352C36.2533 25.9492 35.5443 26.1013 34.8301 26.0781C34.2102 26.089 33.5946 25.9727 33.0215 25.7362C32.4483 25.4997 31.9298 25.1481 31.4979 24.7032C30.5464 23.7548 30.0817 22.4372 30.0817 20.7886Z" fill="#C7C7C7"></path><path d="M56.1725 11.8806C54.9068 11.8761 53.6819 12.3281 52.7225 13.1536V12.0079H48.2065V29.6075H52.7194V21.126C52.7194 19.1687 52.9708 17.8288 53.4768 17.0746C53.9797 16.3383 54.8909 15.9702 56.2106 15.9702C56.5989 15.9702 57.1431 15.9893 57.8401 16.0466V11.9952C57.2868 11.9256 56.7301 11.8874 56.1725 11.8806Z" fill="#C7C7C7"></path><path fill-rule="evenodd" clip-rule="evenodd" d="M73.2502 29.6075H77.7662L77.7726 12.0079H73.2565V13.1345C71.9165 12.0507 70.2505 11.4498 68.5272 11.4287C67.3038 11.4311 66.0931 11.6758 64.9648 12.1487C63.8365 12.6216 62.813 13.3132 61.9535 14.1837C61.0939 15.0542 60.4153 16.0864 59.9567 17.2206C59.4982 18.3547 59.2688 19.5685 59.2818 20.7918C59.2394 23.125 60.0924 25.3857 61.6656 27.1092C62.5116 28.095 63.5645 28.8821 64.7494 29.4146C65.9343 29.9471 67.222 30.2118 68.5208 30.1899C70.2441 30.1683 71.9099 29.5675 73.2502 28.4841V29.6075ZM63.8488 20.7886C63.8488 19.3756 64.1989 18.2107 64.8959 17.3196C65.3143 16.7563 65.8614 16.3013 66.4914 15.9924C67.1214 15.6834 67.8161 15.5296 68.5177 15.5437C69.1469 15.5171 69.7745 15.6242 70.3593 15.8579C70.9441 16.0916 71.4727 16.4466 71.9103 16.8995C72.8428 17.867 73.3074 19.1655 73.3074 20.7759C73.3569 22.0239 72.9958 23.2536 72.2795 24.2767C71.8594 24.8548 71.3042 25.3212 70.6623 25.6352C70.0204 25.9492 69.3114 26.1013 68.5972 26.0781C67.9768 26.0893 67.3607 25.973 66.787 25.7365C66.2133 25.5001 65.6942 25.1483 65.2619 24.7032C64.3135 23.7548 63.8488 22.4372 63.8488 20.7886Z" fill="#C7C7C7"></path><path d="M90.5793 11.4287C89.0812 11.4387 87.6341 11.9736 86.4897 12.9404V12.0079H81.9736V29.6075H86.4897V20.8204C86.4897 18.7741 86.7602 17.4374 87.3044 16.7563C87.96 15.9416 88.9498 15.5342 90.2483 15.5342C90.6855 15.5106 91.1224 15.5839 91.528 15.749C91.9335 15.9141 92.2974 16.1667 92.5938 16.489C93.1752 17.1467 93.4659 18.4643 93.4659 20.4417V29.6075H97.9756V20.1394C97.9756 17.1287 97.4123 15.2287 96.0374 13.7742C95.3361 13.0312 94.49 12.4397 93.5512 12.0363C92.6125 11.6329 91.601 11.4261 90.5793 11.4287Z" fill="#C7C7C7"></path><path d="M107.465 4.979C107.325 4.64272 107.118 4.33809 106.858 4.08329C106.599 3.82285 106.291 3.61665 105.952 3.47675C105.613 3.33685 105.249 3.26607 104.882 3.26855C104.125 3.25672 103.393 3.54242 102.845 4.06419C102.577 4.31408 102.364 4.61736 102.221 4.95448C102.077 5.2916 102.006 5.65508 102.011 6.02148C102.002 6.39404 102.071 6.76436 102.215 7.10822C102.359 7.45209 102.573 7.76175 102.845 8.01695C103.104 8.28226 103.415 8.49149 103.758 8.63164C104.101 8.7718 104.47 8.83989 104.84 8.83169C105.214 8.83846 105.586 8.76981 105.932 8.62982C106.279 8.48983 106.594 8.28139 106.858 8.01695C107.122 7.76049 107.33 7.45286 107.47 7.11298C107.61 6.7731 107.679 6.40815 107.673 6.04057C107.676 5.67633 107.605 5.31529 107.465 4.979Z" fill="#C7C7C7"></path><path fill-rule="evenodd" clip-rule="evenodd" d="M124.171 29.6075H128.687L128.694 12.0079H124.178V13.1345C122.838 12.0505 121.172 11.4496 119.448 11.4287C118.225 11.4311 117.014 11.6758 115.886 12.1487C114.758 12.6216 113.734 13.3132 112.875 14.1837C112.015 15.0542 111.336 16.0864 110.878 17.2206C110.419 18.3547 110.19 19.5685 110.203 20.7918C110.161 23.1248 111.014 25.3854 112.587 27.1092C113.433 28.0948 114.486 28.8818 115.671 29.4143C116.856 29.9467 118.143 30.2116 119.442 30.1899C121.165 30.1688 122.831 29.5679 124.171 28.4841V29.6075ZM114.77 20.7886C114.77 19.3756 115.12 18.2107 115.817 17.3196C116.236 16.7555 116.784 16.2999 117.415 15.9909C118.047 15.6819 118.743 15.5286 119.445 15.5437C120.074 15.5171 120.702 15.6242 121.287 15.8579C121.872 16.0916 122.4 16.4466 122.838 16.8995C123.767 17.867 124.232 19.1655 124.232 20.7759C124.282 22.0239 123.921 23.2538 123.204 24.2767C122.784 24.8552 122.229 25.3219 121.587 25.636C120.945 25.95 120.236 26.1018 119.522 26.0781C118.901 26.0893 118.285 25.973 117.711 25.7365C117.138 25.5001 116.619 25.1483 116.186 24.7032C115.235 23.7548 114.77 22.4372 114.77 20.7886Z" fill="#C7C7C7"></path><path d="M102.558 30.3332V12.0079H107.062V30.7183C106.699 38.6142 98.1347 38.7574 98.1347 38.7574V34.3973C102.24 34.1332 102.539 31.0174 102.558 30.3332Z" fill="#C7C7C7"></path></svg>