<?xml version="1.0" encoding="utf-8"?>
<svg xmlns="http://www.w3.org/2000/svg" fill="none" height="35" viewBox="0 0 35 35" width="35">
<path d="M31.6386 16.5026L29.9768 12.4433C29.8358 12.0998 29.5925 11.8056 29.2784 11.5988C28.9644 11.3921 28.594 11.2822 28.2152 11.2834H24.1105V10.3556C24.1105 10.1095 24.0104 9.8735 23.8323 9.6995C23.6543 9.52549 23.4127 9.42773 23.1609 9.42773H5.118C4.61429 9.42773 4.13121 9.62325 3.77503 9.97126C3.41885 10.3193 3.21875 10.7913 3.21875 11.2834V24.2735C3.21875 24.7656 3.41885 25.2376 3.77503 25.5856C4.13121 25.9337 4.61429 26.1292 5.118 26.1292H7.13595C7.34515 26.9275 7.82034 27.6351 8.48661 28.1404C9.15287 28.6457 9.97231 28.92 10.8157 28.92C11.6592 28.92 12.4786 28.6457 13.1449 28.1404C13.8111 27.6351 14.2863 26.9275 14.4955 26.1292H20.4307C20.6399 26.9275 21.1151 27.6351 21.7813 28.1404C22.4476 28.6457 23.2671 28.92 24.1105 28.92C24.9539 28.92 25.7733 28.6457 26.4396 28.1404C27.1059 27.6351 27.5811 26.9275 27.7903 26.1292H29.8082C30.3119 26.1292 30.795 25.9337 31.1512 25.5856C31.5074 25.2376 31.7075 24.7656 31.7075 24.2735V16.8506C31.7078 16.7314 31.6844 16.6132 31.6386 16.5026ZM24.1105 13.1392H28.2152L29.3548 15.9227H24.1105V13.1392ZM5.118 11.2834H22.2112V18.7063H5.118V11.2834ZM10.8157 27.057C10.4401 27.057 10.0729 26.9482 9.76058 26.7443C9.44825 26.5404 9.20482 26.2506 9.06107 25.9115C8.91732 25.5724 8.8797 25.1993 8.95299 24.8393C9.02627 24.4793 9.20716 24.1487 9.47277 23.8891C9.73839 23.6296 10.0768 23.4529 10.4452 23.3813C10.8136 23.3097 11.1955 23.3464 11.5426 23.4869C11.8896 23.6273 12.1862 23.8652 12.3949 24.1703C12.6036 24.4755 12.715 24.8343 12.715 25.2013C12.715 25.6935 12.5149 26.1655 12.1587 26.5135C11.8025 26.8615 11.3195 27.057 10.8157 27.057ZM20.4307 24.2735H14.4955C14.2863 23.4751 13.8111 22.7675 13.1449 22.2622C12.4786 21.7569 11.6592 21.4826 10.8157 21.4826C9.97231 21.4826 9.15287 21.7569 8.48661 22.2622C7.82034 22.7675 7.34515 23.4751 7.13595 24.2735H5.118V20.562H22.2112V21.9898C21.7746 22.2364 21.3923 22.5652 21.0867 22.9572C20.781 23.3492 20.5581 23.7966 20.4307 24.2735ZM24.1105 27.057C23.7348 27.057 23.3676 26.9482 23.0553 26.7443C22.743 26.5404 22.4996 26.2506 22.3558 25.9115C22.2121 25.5724 22.1744 25.1993 22.2477 24.8393C22.321 24.4793 22.5019 24.1487 22.7675 23.8891C23.0331 23.6296 23.3715 23.4529 23.74 23.3813C24.1084 23.3097 24.4902 23.3464 24.8373 23.4869C25.1843 23.6273 25.481 23.8652 25.6896 24.1703C25.8983 24.4755 26.0097 24.8343 26.0097 25.2013C26.0097 25.6935 25.8096 26.1655 25.4535 26.5135C25.0973 26.8615 24.6142 27.057 24.1105 27.057ZM29.8082 24.2735H27.7903C27.5786 23.4771 27.1025 22.7718 26.4366 22.2681C25.7707 21.7643 24.9526 21.4907 24.1105 21.4899V17.7785H29.8082V24.2735Z" fill="#631F99"/>
</svg>