<svg xmlns="http://www.w3.org/2000/svg" width="50" height="26" viewBox="0 0 80 26" fill="none"><path d="M30.3838 0.40404L19.9192 25.4141H13.0505L7.91919 5.45455C7.59596 4.24242 7.35354 3.75758 6.38384 3.27273C4.80808 2.42424 2.26263 1.61616 0 1.13131L0.161616 0.40404H11.1515C12.5657 0.40404 13.8182 1.33333 14.1414 2.9495L16.8485 17.4141L23.596 0.40404H30.3838ZM57.1313 17.2525C57.1717 10.6667 48 10.303 48.0808 7.35353C48.0808 6.46465 48.9697 5.49495 50.8283 5.25253C51.7576 5.13131 54.303 5.0505 57.2121 6.38384L58.3434 1.09091C56.8081 0.525253 54.7879 0 52.2828 0C45.899 0 41.4141 3.39394 41.3737 8.28283C41.3333 11.8788 44.5657 13.899 47.0303 15.0707C49.5354 16.2828 50.3838 17.0909 50.3838 18.1818C50.3838 19.8788 48.3636 20.6061 46.5051 20.6465C43.2727 20.6869 41.3737 19.7576 39.8788 19.0707L38.7071 24.5657C40.202 25.2525 42.9899 25.8586 45.899 25.899C52.6869 25.8182 57.1313 22.4646 57.1313 17.2525ZM74.0202 25.4141H80L74.7879 0.40404H69.2525C68 0.40404 66.9495 1.13131 66.5051 2.22222L56.8081 25.4141H63.596L64.9293 21.697H73.2121L74.0202 25.4141ZM66.8283 16.5657L70.2222 7.19192L72.1616 16.5657H66.8283ZM39.596 0.40404L34.2626 25.4141H27.798L33.1313 0.40404H39.596Z" fill="#C7C7C7"></path></svg>